<?xml version="1.0" encoding="UTF-8" standalone="no"?>
<svg
   xmlns:dc="http://purl.org/dc/elements/1.1/"
   xmlns:cc="http://creativecommons.org/ns#"
   xmlns:rdf="http://www.w3.org/1999/02/22-rdf-syntax-ns#"
   xmlns:svg="http://www.w3.org/2000/svg"
   xmlns="http://www.w3.org/2000/svg"
   xmlns:sodipodi="http://sodipodi.sourceforge.net/DTD/sodipodi-0.dtd"
   xmlns:inkscape="http://www.inkscape.org/namespaces/inkscape"
   sodipodi:docname="jackett.svg"
   inkscape:version="1.0 (4035a4fb49, 2020-05-01)"
   id="svg8"
   version="1.1"
   viewBox="0 0 66.145832 66.145835"
   height="250"
   width="250">
  <defs
     id="defs2" />
  <sodipodi:namedview
     inkscape:window-maximized="0"
     inkscape:window-y="49"
     inkscape:window-x="474"
     inkscape:window-height="1198"
     inkscape:window-width="1274"
     units="px"
     inkscape:pagecheckerboard="true"
     showgrid="false"
     inkscape:document-rotation="0"
     inkscape:current-layer="layer1"
     inkscape:document-units="mm"
     inkscape:cy="246.26762"
     inkscape:cx="26.755413"
     inkscape:zoom="0.7"
     inkscape:pageshadow="2"
     inkscape:pageopacity="0.0"
     borderopacity="1.0"
     bordercolor="#666666"
     pagecolor="#ffffff"
     id="base" />
  <metadata
     id="metadata5">
    <rdf:RDF>
      <cc:Work
         rdf:about="">
        <dc:format>image/svg+xml</dc:format>
        <dc:type
           rdf:resource="http://purl.org/dc/dcmitype/StillImage" />
        <dc:title></dc:title>
      </cc:Work>
    </rdf:RDF>
  </metadata>
  <g
     id="layer1"
     inkscape:groupmode="layer"
     inkscape:label="Layer 1">
    <path
       style="stroke-width:0.145484"
       fill-rule="evenodd"
       fill="#000000"
       stroke="none"
       d="m 27.761055,4.3362632 c -0.85864,0.170653 -2.06049,0.476025 -2.67109,0.67883 l -1.1099,0.368658 v 1.905263 1.905119 l -0.96615,0.242086 C 18.142945,10.656979 9.6588752,14.300782 9.6590252,15.171943 c 0,0.403428 -0.39819,6.09827 -2.39046,34.191602 -0.43573,6.142788 -0.79202,11.538803 -0.79202,11.991114 v 0.822424 h 4.3189998 4.31914 v -2.216308 c 4.3e-4,-6.648492 1.01737,-18.169548 2.06661,-23.413971 0.20935,-1.046614 0.30668,-1.193408 0.791,-1.193408 h 0.55211 v 5.086862 c 0,5.954968 -0.31541,5.363429 3.23936,6.075138 l 2.67095,0.534801 v 0.975473 c 0,0.895602 -0.0419,0.965726 -0.51153,0.85574 -1.04312,-0.244414 -5.00117,-1.025375 -5.19641,-1.025375 -0.1113,0 -0.20237,1.643246 -0.20237,3.651659 v 3.651805 l 1.87544,0.861558 c 3.36403,1.545336 6.99882,2.578566 10.11567,2.875355 l 1.64805,0.156974 V 33.484212 7.9151802 l -1.76166,-0.137628 c -3.30585,-0.258235 -4.52166,-1.077749 -2.55733,-1.723845 1.44597,-0.475734 8.82755,-0.486355 10.11567,-0.01455 1.80372,0.660645 0.72306,1.43695 -2.40514,1.727628 l -1.57298,0.146211 V 33.486539 59.059935 l 1.80633,-0.150576 c 3.19673,-0.266673 8.49192,-1.905264 10.86667,-3.362873 l 0.73891,-0.453329 v -3.618634 c 0,-1.990228 -0.0911,-3.618489 -0.20236,-3.618489 -0.19525,0 -4.15343,0.780961 -5.19657,1.025374 -0.46962,0.109986 -0.51137,0.03986 -0.51137,-0.855739 v -0.975472 l 2.67095,-0.538003 c 1.4691,-0.295915 2.79883,-0.585865 2.95508,-0.644349 0.21605,-0.08089 0.28427,-1.358534 0.28427,-5.325458 v -5.219253 l 0.62239,0.07202 c 0.70647,0.08162 0.63155,-0.188112 1.40756,5.072896 0.70676,4.791092 1.14249,10.119896 1.28273,15.685111 0.0693,2.750529 0.17255,5.231184 0.22943,5.512406 0.10301,0.508903 0.12599,0.51152 4.418366,0.51152 h 4.314777 l -2.92e-4,-0.738768 C 59.668854,60.789889 58.008874,38.45294 56.711881,21.647889 56.463102,18.423227 56.259424,15.54991 56.259424,15.262578 c 0,-0.95656 -9.691589,-5.177791 -13.161679,-5.7326678 l -0.93212,-0.148976 v -2.010595 -2.010449 l -1.19821,-0.348289 c -3.62039,-1.052434 -9.73509,-1.365226 -13.20636,-0.675339"
       id="path0" />
  </g>
</svg>
