<?xml version="1.0" encoding="UTF-8" standalone="no"?>
<svg
   xmlns:dc="http://purl.org/dc/elements/1.1/"
   xmlns:cc="http://creativecommons.org/ns#"
   xmlns:rdf="http://www.w3.org/1999/02/22-rdf-syntax-ns#"
   xmlns:svg="http://www.w3.org/2000/svg"
   xmlns="http://www.w3.org/2000/svg"
   xmlns:sodipodi="http://sodipodi.sourceforge.net/DTD/sodipodi-0.dtd"
   xmlns:inkscape="http://www.inkscape.org/namespaces/inkscape"
   sodipodi:docname="ytm.svg"
   inkscape:version="1.0 (4035a4fb49, 2020-05-01)"
   id="svg8"
   version="1.1"
   viewBox="0 0 68.791672 68.791673"
   height="260"
   width="260">
  <defs
     id="defs2" />
  <sodipodi:namedview
     units="px"
     inkscape:window-maximized="0"
     inkscape:window-y="0"
     inkscape:window-x="485"
     inkscape:window-height="1368"
     inkscape:window-width="2066"
     fit-margin-bottom="0"
     fit-margin-right="0"
     fit-margin-left="0"
     fit-margin-top="0"
     inkscape:pagecheckerboard="true"
     showgrid="false"
     inkscape:document-rotation="0"
     inkscape:current-layer="layer1"
     inkscape:document-units="mm"
     inkscape:cy="693.92051"
     inkscape:cx="748.85284"
     inkscape:zoom="0.7"
     inkscape:pageshadow="2"
     inkscape:pageopacity="0.0"
     borderopacity="1.0"
     bordercolor="#666666"
     pagecolor="#ffffff"
     id="base" />
  <metadata
     id="metadata5">
    <rdf:RDF>
      <cc:Work
         rdf:about="">
        <dc:format>image/svg+xml</dc:format>
        <dc:type
           rdf:resource="http://purl.org/dc/dcmitype/StillImage" />
        <dc:title></dc:title>
      </cc:Work>
    </rdf:RDF>
  </metadata>
  <g
     transform="translate(152.00543,137.3514)"
     id="layer1"
     inkscape:groupmode="layer"
     inkscape:label="Layer 1">
    <g
       style="fill:#fe0000;fill-opacity:1"
       transform="matrix(0.24451863,0,0,0.24451863,-109.49015,-98.345379)"
       id="g80">
      <path
         id="path90"
         d="m -38.701604,100.03169 c 0.254661,-0.06654 0.67138,-0.06654 0.926042,0 0.254661,0.0666 0.0463,0.12101 -0.463021,0.12101 -0.509323,0 -0.717683,-0.0545 -0.463021,-0.12101 z m 10.451042,0.007 c 0.181901,-0.07339 0.479557,-0.07339 0.661458,0 0.181901,0.0734 0.03307,0.13346 -0.330729,0.13346 -0.363802,0 -0.512631,-0.0601 -0.330729,-0.13346 z M -42.521526,99.7686 c 0.190995,-0.07643 0.419201,-0.06703 0.507119,0.02088 0.08792,0.08792 -0.06835,0.150453 -0.347266,0.138964 -0.308226,-0.0127 -0.370919,-0.07539 -0.159853,-0.15985 z m 18.25625,0 c 0.190995,-0.07643 0.419201,-0.06703 0.507119,0.02088 0.08792,0.08792 -0.06835,0.150453 -0.347266,0.138964 -0.308226,-0.0127 -0.370919,-0.07539 -0.159853,-0.15985 z m 3.439583,-0.264583 c 0.190995,-0.07643 0.419201,-0.06703 0.507119,0.02088 0.08792,0.08792 -0.06835,0.150452 -0.347265,0.138964 -0.308227,-0.0127 -0.37092,-0.07539 -0.159854,-0.159851 z m -94.685467,-32.296878 -0.9118,-0.992187 0.99219,0.911799 c 0.5457,0.501488 0.99219,0.947973 0.99219,0.992187 0,0.202041 -0.2239,0.0117 -1.07258,-0.911799 z m 164.320493,0.06615 c 0.493655,-0.509323 0.957086,-0.926042 1.029846,-0.926042 0.07276,0 -0.271608,0.416719 -0.765262,0.926042 -0.493655,0.509323 -0.957086,0.926042 -1.029846,0.926042 -0.07276,0 0.271608,-0.416719 0.765262,-0.926042 z m -168.289243,-4.034896 -0.9118,-0.992187 0.99219,0.911799 c 0.92351,0.84868 1.11384,1.072576 0.9118,1.072576 -0.0442,0 -0.4907,-0.446485 -0.99219,-0.992188 z m 172.257993,0.06615 c 0.493655,-0.509323 0.957086,-0.926042 1.029846,-0.926042 0.07276,0 -0.271608,0.416719 -0.765262,0.926042 -0.493655,0.509323 -0.957086,0.926042 -1.029846,0.926042 -0.07276,0 0.271608,-0.416719 0.765262,-0.926042 z M -38.288193,37.591674 c 0.190995,-0.07643 0.419201,-0.06703 0.507119,0.02088 0.08792,0.08792 -0.06835,0.150453 -0.347265,0.138965 -0.308227,-0.0127 -0.37092,-0.07539 -0.159854,-0.159851 z m 46.0871097,-9.70874 c 0,-0.05494 0.2083593,-0.2633 0.4630208,-0.463021 0.419645,-0.329107 0.4290034,-0.319749 0.099896,0.0999 -0.3456437,0.44073 -0.5629169,0.580888 -0.5629169,0.363125 z M -79.811917,22.492726 c -0.329107,-0.419645 -0.319749,-0.429004 0.0999,-0.0999 0.44073,0.345643 0.580888,0.562917 0.363125,0.562917 -0.05494,0 -0.2633,-0.20836 -0.463021,-0.463021 z M 12.826,22.855851 c 0,-0.05494 0.208359,-0.263301 0.463021,-0.463021 0.419645,-0.329108 0.429003,-0.319749 0.0999,0.0999 C 13.043273,22.933456 12.826,23.073613 12.826,22.855851 Z M -151.72395,-6.3027594 c 0.0127,-0.3082263 0.0754,-0.3709194 0.15986,-0.1598533 0.0764,0.1909948 0.067,0.4192005 -0.0209,0.5071189 -0.0879,0.087918 -0.15045,-0.068352 -0.13897,-0.3472656 z m 236.802089,0 c 0.0127,-0.3082263 0.07539,-0.3709194 0.159851,-0.1598533 0.07643,0.1909948 0.06703,0.4192005 -0.02088,0.5071189 -0.08792,0.087918 -0.150453,-0.068352 -0.138965,-0.3472656 z M -151.98853,-9.7423427 c 0.0127,-0.3082263 0.0754,-0.3709193 0.15985,-0.1598533 0.0764,0.1909947 0.067,0.4192005 -0.0209,0.5071189 -0.0879,0.087918 -0.15046,-0.068352 -0.13897,-0.3472656 z m 237.331252,0 c 0.0127,-0.3082263 0.07539,-0.3709193 0.159851,-0.1598533 0.07643,0.1909947 0.06703,0.4192005 -0.02088,0.5071189 -0.08792,0.087918 -0.150452,-0.068352 -0.138964,-0.3472656 z M -152.23222,-13.556753 c 0,-0.363802 0.0601,-0.512631 0.13345,-0.33073 0.0734,0.181902 0.0734,0.479558 0,0.661459 -0.0734,0.181901 -0.13345,0.03307 -0.13345,-0.330729 z m 237.860412,0 c 0,-0.363802 0.06006,-0.512631 0.133453,-0.33073 0.0734,0.181902 0.0734,0.479558 0,0.661459 -0.0734,0.181901 -0.133453,0.03307 -0.133453,-0.330729 z M -152.23222,-24.140087 c 0,-0.363802 0.0601,-0.51263 0.13345,-0.330729 0.0734,0.181901 0.0734,0.479557 0,0.661458 -0.0734,0.181902 -0.13345,0.03307 -0.13345,-0.330729 z m 237.860412,0 c 0,-0.363802 0.06006,-0.51263 0.133453,-0.330729 0.0734,0.181901 0.0734,0.479557 0,0.661458 -0.0734,0.181902 -0.133453,0.03307 -0.133453,-0.330729 z m -237.616722,-3.858506 c 0.0127,-0.308226 0.0754,-0.370919 0.15985,-0.159853 0.0764,0.190995 0.067,0.419201 -0.0209,0.507119 -0.0879,0.08792 -0.15046,-0.06835 -0.13897,-0.347266 z m 237.331252,0 c 0.0127,-0.308226 0.07539,-0.370919 0.159851,-0.159853 0.07643,0.190995 0.06703,0.419201 -0.02088,0.507119 -0.08792,0.08792 -0.150452,-0.06835 -0.138964,-0.347266 z m -237.066672,-3.439583 c 0.0127,-0.308226 0.0754,-0.370919 0.15986,-0.159853 0.0764,0.190994 0.067,0.4192 -0.0209,0.507119 -0.0879,0.08792 -0.15045,-0.06835 -0.13897,-0.347266 z m 71.6812,-28.520557 c 0,-0.05494 0.208359,-0.2633 0.463021,-0.463021 0.419645,-0.329107 0.429003,-0.319749 0.0999,0.0999 -0.345644,0.44073 -0.562917,0.580888 -0.562917,0.363125 z m 5.027083,-5.027083 c 0,-0.05494 0.20836,-0.2633 0.463021,-0.463021 0.419645,-0.329107 0.429004,-0.319749 0.0999,0.0999 -0.345643,0.44073 -0.562917,0.580888 -0.562917,0.363125 z m 36.727474,-10.399594 c 0.190995,-0.07643 0.419201,-0.06703 0.507119,0.02088 0.08792,0.08792 -0.06835,0.150453 -0.347265,0.138965 -0.308227,-0.0127 -0.37092,-0.07539 -0.159854,-0.159851 z m -81.177477,-25.61614 c 0.49366,-0.50932 0.95709,-0.92604 1.02985,-0.92604 0.0728,0 -0.27161,0.41672 -0.76526,0.92604 -0.49366,0.50933 -0.95709,0.92605 -1.02985,0.92605 -0.0728,0 0.27161,-0.41672 0.76526,-0.92605 z m 172.229511,-0.0661 -0.911799,-0.99219 0.992187,0.9118 c 0.923507,0.84868 1.11384,1.07258 0.911799,1.07258 -0.04421,0 -0.490699,-0.44649 -0.992187,-0.99219 z m -168.260761,-3.90261 c 0.49366,-0.50932 0.95709,-0.92604 1.02985,-0.92604 0.0728,0 -0.27161,0.41672 -0.76526,0.92604 -0.49366,0.50933 -0.95709,0.92605 -1.02985,0.92605 -0.0728,0 0.27161,-0.41672 0.76526,-0.92605 z m 164.292011,-0.0661 -0.911799,-0.99219 0.992187,0.9118 c 0.923507,0.84868 1.11384,1.07258 0.911799,1.07258 -0.04421,0 -0.490699,-0.44649 -0.992187,-0.99219 z m -94.7562,-32.26147 c 0.190994,-0.0764 0.4192,-0.067 0.507119,0.0209 0.08792,0.0879 -0.06835,0.15045 -0.347266,0.13896 -0.308226,-0.0127 -0.370919,-0.0754 -0.159853,-0.15985 z m 25.135416,0 c 0.190995,-0.0764 0.419201,-0.067 0.507119,0.0209 0.08792,0.0879 -0.06835,0.15045 -0.347265,0.13896 -0.308227,-0.0127 -0.37092,-0.0754 -0.159854,-0.15985 z m -21.695833,-0.26458 c 0.190995,-0.0764 0.419201,-0.067 0.507119,0.0209 0.08792,0.0879 -0.06835,0.15046 -0.347266,0.13897 -0.308226,-0.0127 -0.370919,-0.0754 -0.159853,-0.15985 z m 18.25625,0 c 0.190995,-0.0764 0.419201,-0.067 0.507119,0.0209 0.08792,0.0879 -0.06835,0.15046 -0.347266,0.13897 -0.308226,-0.0127 -0.370919,-0.0754 -0.159853,-0.15985 z m -14.56862,-0.25908 c 0.181901,-0.0734 0.479557,-0.0734 0.661459,0 0.181901,0.0734 0.03307,0.13346 -0.33073,0.13346 -0.363802,0 -0.51263,-0.0601 -0.330729,-0.13346 z m 10.583334,0 c 0.181901,-0.0734 0.479557,-0.0734 0.661458,0 0.181901,0.0734 0.03307,0.13346 -0.330729,0.13346 -0.363802,0 -0.512631,-0.0601 -0.330729,-0.13346 z"
         style="fill:#fe0000;fill-opacity:1;stroke-width:0.264583" />
      <path
         id="path88"
         d="m -29.308896,100.03885 c 0.181901,-0.0734 0.479557,-0.0734 0.661459,0 0.181901,0.0734 0.03307,0.13345 -0.33073,0.13345 -0.363802,0 -0.51263,-0.0601 -0.330729,-0.13345 z m -15.858463,-0.534676 c 0.190994,-0.07643 0.4192,-0.06703 0.507119,0.02087 0.08792,0.08792 -0.06835,0.150453 -0.347266,0.138965 -0.308226,-0.0127 -0.370919,-0.07539 -0.159853,-0.159851 z m 23.547916,0 c 0.190995,-0.07643 0.419201,-0.06703 0.507119,0.02087 0.08792,0.08792 -0.06835,0.150453 -0.347265,0.138965 -0.308227,-0.0127 -0.37092,-0.07539 -0.159854,-0.159851 z m -95.874297,-34.28124 -1.04589,-1.124479 1.12448,1.045885 c 0.61847,0.575236 1.12448,1.081251 1.12448,1.124479 0,0.200178 -0.23041,-1.3e-4 -1.20307,-1.045885 z m 168.287448,0.06615 c 0.568389,-0.582083 1.092968,-1.058333 1.165728,-1.058333 0.07276,0 -0.332756,0.47625 -0.901144,1.058333 -0.568389,0.582083 -1.092968,1.058333 -1.165728,1.058333 -0.07276,0 0.332756,-0.47625 0.901144,-1.058333 z M -28.779729,43.153435 c 0.181901,-0.0734 0.479557,-0.0734 0.661458,0 0.181901,0.0734 0.03307,0.133453 -0.330729,0.133453 -0.363802,0 -0.51263,-0.06005 -0.330729,-0.133453 z m -8.73125,-5.55625 c 0.181901,-0.0734 0.479557,-0.0734 0.661458,0 0.181901,0.0734 0.03307,0.133453 -0.330729,0.133453 -0.363802,0 -0.51263,-0.06005 -0.330729,-0.133453 z m 7.9375,0 c 0.181901,-0.0734 0.479557,-0.0734 0.661458,0 0.181901,0.0734 0.03307,0.133453 -0.330729,0.133453 -0.363802,0 -0.51263,-0.06005 -0.330729,-0.133453 z m -44.682188,-9.548209 c -0.329107,-0.419645 -0.319749,-0.429004 0.0999,-0.0999 0.254662,0.19972 0.463021,0.40808 0.463021,0.463021 0,0.217762 -0.217273,0.07761 -0.562917,-0.363125 z m -3.034096,-2.778125 -0.504029,-0.595313 0.595313,0.504029 c 0.327422,0.277214 0.595312,0.545105 0.595312,0.595312 0,0.211733 -0.212934,0.05542 -0.686596,-0.504028 z m 6.473679,-1.719792 c -0.329107,-0.419645 -0.319749,-0.429003 0.0999,-0.0999 0.254662,0.199721 0.463021,0.40808 0.463021,0.463021 0,0.217763 -0.217273,0.07761 -0.562917,-0.363125 z m 74.6462507,0.363125 c 0,-0.05494 0.2083593,-0.2633 0.4630208,-0.463021 0.419645,-0.329107 0.4290034,-0.319749 0.099896,0.0999 -0.3456437,0.44073 -0.5629169,0.580888 -0.5629169,0.363125 z M -75.843167,18.523976 c -0.329107,-0.419645 -0.319749,-0.429004 0.0999,-0.0999 0.44073,0.345643 0.580888,0.562917 0.363125,0.562917 -0.05494,0 -0.2633,-0.20836 -0.463021,-0.463021 z M 8.85725,18.887101 c 0,-0.05494 0.2083594,-0.263301 0.4630208,-0.463021 0.4196451,-0.329108 0.4290034,-0.319749 0.099896,0.0999 C 9.0745232,18.964706 8.85725,19.104863 8.85725,18.887101 Z m -160.5812,-25.9836104 c 0.0127,-0.3082263 0.0754,-0.3709194 0.15986,-0.1598533 0.0764,0.1909948 0.067,0.4192005 -0.0209,0.5071189 -0.0879,0.087918 -0.15045,-0.068352 -0.13897,-0.3472656 z m 236.802089,0 c 0.0127,-0.3082263 0.07539,-0.3709194 0.159851,-0.1598533 0.07643,0.1909948 0.06703,0.4192005 -0.02088,0.5071189 -0.08792,0.087918 -0.150453,-0.068352 -0.138965,-0.3472656 z M -95.346808,-14.08592 c 0,-0.363802 0.06005,-0.51263 0.133453,-0.330729 0.0734,0.181901 0.0734,0.479557 0,0.661458 -0.0734,0.181901 -0.133453,0.03307 -0.133453,-0.330729 z m 124.089583,0 c 0,-0.363802 0.06005,-0.51263 0.133453,-0.330729 0.0734,0.181901 0.0734,0.479557 0,0.661458 -0.0734,0.181901 -0.133453,0.03307 -0.133453,-0.330729 z m -180.974995,-0.529167 c 0,-0.363802 0.0601,-0.51263 0.13345,-0.330729 0.0734,0.181901 0.0734,0.479557 0,0.661459 -0.0734,0.181901 -0.13345,0.03307 -0.13345,-0.33073 z m 237.860412,0 c 0,-0.363802 0.06006,-0.51263 0.133453,-0.330729 0.0734,0.181901 0.0734,0.479557 0,0.661459 -0.0734,0.181901 -0.133453,0.03307 -0.133453,-0.33073 z m -175.41875,-0.264583 c 0,-0.363802 0.06006,-0.51263 0.133453,-0.330729 0.0734,0.181901 0.0734,0.479557 0,0.661458 -0.0734,0.181901 -0.133453,0.03307 -0.133453,-0.330729 z m 112.977083,0 c 0,-0.363802 0.06006,-0.51263 0.133453,-0.330729 0.0734,0.181901 0.0734,0.479557 0,0.661458 -0.0734,0.181901 -0.133453,0.03307 -0.133453,-0.330729 z m -112.977083,-7.9375 c 0,-0.363802 0.06006,-0.51263 0.133453,-0.330729 0.0734,0.181901 0.0734,0.479557 0,0.661458 -0.0734,0.181901 -0.133453,0.03307 -0.133453,-0.330729 z m 112.977083,0 c 0,-0.363802 0.06006,-0.51263 0.133453,-0.330729 0.0734,0.181901 0.0734,0.479557 0,0.661458 -0.0734,0.181901 -0.133453,0.03307 -0.133453,-0.330729 z m -175.418745,-0.264583 c 0,-0.363802 0.0601,-0.512631 0.13345,-0.330729 0.0734,0.181901 0.0734,0.479557 0,0.661458 -0.0734,0.181901 -0.13345,0.03307 -0.13345,-0.330729 z m 56.864526,-0.683506 c 0.0127,-0.308227 0.07539,-0.37092 0.15985,-0.159854 0.07643,0.190995 0.06703,0.419201 -0.02088,0.507119 -0.08792,0.08792 -0.150453,-0.06835 -0.138965,-0.347265 z m -56.356256,-6.879167 c 0.0127,-0.308226 0.0754,-0.370919 0.15986,-0.159853 0.0764,0.190994 0.067,0.4192 -0.0209,0.507119 -0.0879,0.08792 -0.15045,-0.06835 -0.13897,-0.347266 z m 236.802089,0 c 0.0127,-0.308226 0.07539,-0.370919 0.159851,-0.159853 0.07643,0.190994 0.06703,0.4192 -0.02088,0.507119 -0.08792,0.08792 -0.150453,-0.06835 -0.138965,-0.347266 z M -76.074,-55.989983 c 0,-0.05494 0.208359,-0.2633 0.463021,-0.463021 0.419645,-0.329107 0.429003,-0.319749 0.0999,0.0999 -0.345644,0.44073 -0.562917,0.580888 -0.562917,0.363125 z m 85.1620831,-0.363125 c -0.3291073,-0.419645 -0.319749,-0.429003 0.099896,-0.0999 0.2546614,0.199721 0.4630208,0.408081 0.4630208,0.463021 0,0.217763 -0.2172732,0.07761 -0.5629169,-0.363125 z M 13.586,-59.792691 c -0.329108,-0.419645 -0.319749,-0.429003 0.0999,-0.0999 0.44073,0.345644 0.580887,0.562917 0.363125,0.562917 -0.05494,0 -0.263301,-0.208359 -0.463021,-0.463021 z m -84.632917,-1.224375 c 0,-0.05494 0.20836,-0.2633 0.463021,-0.463021 0.419645,-0.329107 0.429004,-0.319749 0.0999,0.0999 -0.345643,0.44073 -0.562917,0.580888 -0.562917,0.363125 z m 75.1079168,-0.363125 c -0.3291073,-0.419645 -0.319749,-0.429003 0.099896,-0.0999 0.4407297,0.345644 0.5808874,0.562917 0.3631248,0.562917 -0.054941,0 -0.2633001,-0.208359 -0.4630208,-0.463021 z m -81.4579168,-1.521354 c 0.341776,-0.363802 0.68094,-0.661458 0.7537,-0.661458 0.07276,0 -0.147341,0.297656 -0.489116,0.661458 -0.341776,0.363802 -0.68094,0.661458 -0.7537,0.661458 -0.07276,0 0.147341,-0.297656 0.489116,-0.661458 z m 88.213404,0.06615 -0.504029,-0.595313 0.595313,0.504029 c 0.559445,0.473662 0.715761,0.686596 0.504028,0.686596 -0.05021,0 -0.318098,-0.26789 -0.595312,-0.595312 z m -48.327466,-12.544499 c 0.181901,-0.0734 0.479557,-0.0734 0.661458,0 0.181901,0.0734 0.03307,0.133453 -0.330729,0.133453 -0.363802,0 -0.51263,-0.06006 -0.330729,-0.133453 z m 7.9375,0 c 0.181901,-0.0734 0.479557,-0.0734 0.661458,0 0.181901,0.0734 0.03307,0.133453 -0.330729,0.133453 -0.363802,0 -0.51263,-0.06006 -0.330729,-0.133453 z m -8.714714,-5.561762 c 0.190995,-0.07643 0.419201,-0.06703 0.507119,0.02088 0.08792,0.08792 -0.06835,0.150453 -0.347265,0.138965 -0.308227,-0.0127 -0.37092,-0.07539 -0.159854,-0.159851 z m 9.508464,0.0055 c 0.181901,-0.0734 0.479557,-0.0734 0.661458,0 0.181901,0.0734 0.03307,0.133453 -0.330729,0.133453 -0.363802,0 -0.51263,-0.06006 -0.330729,-0.133453 z m -88.701561,-22.049764 c 0.56839,-0.58208 1.09297,-1.05833 1.16573,-1.05833 0.0728,0 -0.33276,0.47625 -0.90115,1.05833 -0.56839,0.58208 -1.09297,1.05833 -1.16573,1.05833 -0.0728,0 0.33276,-0.47625 0.90115,-1.05833 z m 168.26255,-0.0662 -1.045885,-1.12448 1.124479,1.04589 c 1.045755,0.97266 1.246063,1.20307 1.045885,1.20307 -0.04323,0 -0.549243,-0.50601 -1.124479,-1.12448 z m -95.948619,-34.24584 c 0.190994,-0.0764 0.4192,-0.067 0.507119,0.0209 0.08792,0.0879 -0.06835,0.15045 -0.347266,0.13896 -0.308226,-0.0127 -0.370919,-0.0754 -0.159853,-0.15985 z m 23.547916,0 c 0.190995,-0.0764 0.419201,-0.067 0.507119,0.0209 0.08792,0.0879 -0.06835,0.15045 -0.347265,0.13896 -0.308227,-0.0127 -0.37092,-0.0754 -0.159854,-0.15985 z m -7.689453,-0.52366 c 0.181901,-0.0734 0.479557,-0.0734 0.661459,0 0.181901,0.0734 0.03307,0.13346 -0.33073,0.13346 -0.363802,0 -0.51263,-0.0601 -0.330729,-0.13346 z"
         style="fill:#fe0000;fill-opacity:1;stroke-width:0.264583" />
      <path
         id="path86"
         d="m -35.129729,100.01762 c 1.055026,-0.05022 2.781432,-0.05022 3.836458,0 1.055026,0.0502 0.191823,0.0913 -1.918229,0.0913 -2.110052,0 -2.973255,-0.0411 -1.918229,-0.0913 z m -6.212673,-0.251477 c 0.257431,-0.06708 0.614619,-0.06267 0.79375,0.0098 0.17913,0.07248 -0.03149,0.127363 -0.468056,0.12197 -0.436563,-0.0054 -0.583126,-0.06469 -0.325694,-0.131773 z m 1.450173,0.0081 c 0.181901,-0.0734 0.479557,-0.0734 0.661458,0 0.181901,0.0734 0.03307,0.133453 -0.330729,0.133453 -0.363802,0 -0.51263,-0.06006 -0.330729,-0.133453 z m 14.022917,0 c 0.181901,-0.0734 0.479557,-0.0734 0.661458,0 0.181901,0.0734 0.03307,0.133453 -0.330729,0.133453 -0.363802,0 -0.512631,-0.06006 -0.330729,-0.133453 z m -18.504297,-0.270095 c 0.190994,-0.07643 0.4192,-0.06703 0.507119,0.02088 0.08792,0.08792 -0.06835,0.150452 -0.347266,0.138964 -0.308226,-0.0127 -0.370919,-0.07539 -0.159853,-0.15985 z m 21.960416,0 c 0.190995,-0.07643 0.419201,-0.06703 0.507119,0.02088 0.08792,0.08792 -0.06835,0.150452 -0.347265,0.138964 -0.308227,-0.0127 -0.37092,-0.07539 -0.159854,-0.15985 z m 2.38125,-0.264583 c 0.190995,-0.07643 0.419201,-0.06703 0.507119,0.02088 0.08792,0.08792 -0.06835,0.150453 -0.347265,0.138965 -0.308227,-0.0127 -0.37092,-0.07539 -0.159854,-0.159851 z M -111.03275,71.176059 c -0.32911,-0.419645 -0.31975,-0.429003 0.0999,-0.0999 0.44073,0.345644 0.58088,0.562917 0.36312,0.562917 -0.0549,0 -0.2633,-0.208359 -0.46302,-0.463021 z m 155.079583,0.363125 c 0,-0.05494 0.20836,-0.2633 0.463021,-0.463021 0.419645,-0.329107 0.429004,-0.319749 0.0999,0.0999 -0.345643,0.44073 -0.562917,0.580888 -0.562917,0.363125 z M -123.46817,58.740643 c -0.3291,-0.419646 -0.31975,-0.429004 0.0999,-0.0999 0.44073,0.345644 0.58089,0.562917 0.36312,0.562917 -0.0549,0 -0.2633,-0.208359 -0.46302,-0.46302 z m 88.867608,-15.342458 c 0.763984,-0.05345 2.01414,-0.05345 2.778125,0 0.763984,0.05345 0.138906,0.09718 -1.389063,0.09718 -1.527969,0 -2.153047,-0.04373 -1.389062,-0.09718 z m -4.481381,-0.250261 c 0.190995,-0.07643 0.419201,-0.06703 0.507119,0.02087 0.08792,0.08792 -0.06835,0.150453 -0.347265,0.138965 -0.308227,-0.0127 -0.37092,-0.07539 -0.159854,-0.159851 z m 11.377084,0 c 0.190994,-0.07643 0.4192,-0.06703 0.507119,0.02087 0.08792,0.08792 -0.06835,0.150453 -0.347266,0.138965 -0.308226,-0.0127 -0.370919,-0.07539 -0.159853,-0.159851 z m -8.480118,-5.56264 c 0.329117,-0.06329 0.805367,-0.06088 1.058333,0.0053 0.252965,0.06622 -0.01633,0.118004 -0.598398,0.115067 -0.582083,-0.0029 -0.789053,-0.05712 -0.459935,-0.120407 z m 5.027083,0 c 0.329118,-0.06329 0.805368,-0.06088 1.058333,0.0053 0.252966,0.06622 -0.01632,0.118004 -0.598397,0.115067 -0.582084,-0.0029 -0.789054,-0.05712 -0.459936,-0.120407 z m -44.936132,-11.123808 -0.641432,-0.727604 0.727604,0.641432 c 0.680056,0.599516 0.848939,0.813776 0.641432,0.813776 -0.04739,0 -0.374814,-0.327422 -0.727604,-0.727604 z m 85.4804427,0.06615 c 0.3417755,-0.363802 0.6809393,-0.661459 0.7537003,-0.661459 0.07276,0 -0.1473415,0.297657 -0.489117,0.661459 -0.3417755,0.363802 -0.6809396,0.661458 -0.7537,0.661458 -0.07276,0 0.1473411,-0.297656 0.4891167,-0.661458 z m -87.9906037,-2.579688 -0.777105,-0.859896 0.859896,0.777105 c 0.801545,0.724371 0.981512,0.942687 0.777105,0.942687 -0.04554,0 -0.432488,-0.386953 -0.859896,-0.859896 z M 11.2385,24.725039 c 0,-0.04553 0.386953,-0.432488 0.859896,-0.859896 l 0.859896,-0.777105 -0.777105,0.859896 C 11.456816,24.749479 11.2385,24.929446 11.2385,24.725039 Z m -82.972013,-2.100022 -0.504029,-0.595312 0.595313,0.504029 c 0.559445,0.473662 0.715761,0.686596 0.504028,0.686596 -0.05021,0 -0.318098,-0.267891 -0.595312,-0.595313 z m 76.7543047,0.06615 c 0.26339,-0.291041 0.5384218,-0.529166 0.6111822,-0.529166 0.07276,0 -0.083209,0.238125 -0.3465989,0.529166 -0.2633901,0.291042 -0.5384218,0.529167 -0.6111822,0.529167 -0.07276,0 0.083209,-0.238125 0.3465989,-0.529167 z M -75.049417,19.317726 c -0.329107,-0.419645 -0.319749,-0.429004 0.0999,-0.0999 0.254662,0.19972 0.463021,0.40808 0.463021,0.463021 0,0.217762 -0.217273,0.0776 -0.562917,-0.363125 z M 8.0635,19.680851 c 0,-0.05494 0.2083594,-0.263301 0.4630208,-0.463021 0.4196451,-0.329108 0.4290034,-0.319749 0.099896,0.0999 C 8.2807732,19.758456 8.0635,19.898613 8.0635,19.680851 Z M 84.813556,-5.5090094 c 0.0127,-0.3082264 0.07539,-0.3709194 0.15985,-0.1598533 0.07643,0.1909948 0.06703,0.4192005 -0.02088,0.5071189 -0.08792,0.087918 -0.150453,-0.068352 -0.138965,-0.3472656 z m -236.537506,-2.38125 c 0.0127,-0.3082264 0.0754,-0.3709194 0.15986,-0.1598533 0.0764,0.1909948 0.067,0.4192005 -0.0209,0.5071189 -0.0879,0.087918 -0.15045,-0.068352 -0.13897,-0.3472656 z m 236.802089,0 c 0.0127,-0.3082264 0.07539,-0.3709194 0.159851,-0.1598533 0.07643,0.1909948 0.06703,0.4192005 -0.02088,0.5071189 -0.08792,0.087918 -0.150453,-0.068352 -0.138965,-0.3472656 z m 0.310417,-3.4175356 c 0.0029,-0.582083 0.05712,-0.789054 0.120407,-0.459936 0.06329,0.329118 0.06088,0.805368 -0.0053,1.058334 -0.06622,0.252965 -0.118004,-0.01633 -0.115067,-0.598398 z m -237.346396,0 c 0.005,-0.436562 0.0647,-0.583126 0.13178,-0.325694 0.0671,0.257431 0.0627,0.614619 -0.01,0.79375 -0.0725,0.179131 -0.12736,-0.03149 -0.12197,-0.468056 z m -0.0307,-1.344964 c 0.0127,-0.308227 0.0754,-0.37092 0.15985,-0.159854 0.0764,0.190995 0.067,0.419201 -0.0209,0.507119 -0.0879,0.08792 -0.15046,-0.06835 -0.13897,-0.347265 z m 180.710419,-0.529167 c 0.0127,-0.308226 0.07539,-0.370919 0.159851,-0.159853 0.07643,0.190994 0.06703,0.4192 -0.02088,0.507119 -0.08792,0.08792 -0.150453,-0.06835 -0.138965,-0.347266 z M -152.16886,-18.84842 c 0,-2.110052 0.0411,-2.973255 0.0913,-1.918229 0.0502,1.055026 0.0502,2.781432 0,3.836458 -0.0502,1.055026 -0.0913,0.191823 -0.0913,-1.918229 z m 237.860419,0 c 0,-2.110052 0.04109,-2.973255 0.09131,-1.918229 0.05022,1.055026 0.05022,2.781432 0,3.836458 -0.05022,1.055026 -0.09131,0.191823 -0.09131,-1.918229 z m -175.45717,2.513542 c 0.0029,-0.582084 0.05712,-0.789054 0.120407,-0.459936 0.06329,0.329118 0.06088,0.805368 -0.0053,1.058333 -0.06622,0.252966 -0.118004,-0.01633 -0.115067,-0.598397 z m 112.977084,0 c 0.0029,-0.582084 0.05712,-0.789054 0.120406,-0.459936 0.06329,0.329118 0.06088,0.805368 -0.0053,1.058333 -0.06622,0.252966 -0.118005,-0.01633 -0.115068,-0.598397 z M -95.555281,-18.84842 c 0,-1.527969 0.04373,-2.153047 0.09718,-1.389062 0.05345,0.763984 0.05345,2.01414 0,2.778125 -0.05345,0.763984 -0.09718,0.138906 -0.09718,-1.389063 z m 124.61875,0 c 0,-1.527969 0.04373,-2.153047 0.09718,-1.389062 0.05345,0.763984 0.05345,2.01414 0,2.778125 -0.05345,0.763984 -0.09718,0.138906 -0.09718,-1.389063 z m -118.82908,-2.513542 c 0.0029,-0.582083 0.05712,-0.789053 0.120407,-0.459935 0.06329,0.329117 0.06088,0.805367 -0.0053,1.058333 -0.06622,0.252965 -0.118004,-0.01633 -0.115067,-0.598398 z m 112.977084,0 c 0.0029,-0.582083 0.05712,-0.789053 0.120406,-0.459935 0.06329,0.329117 0.06088,0.805367 -0.0053,1.058333 -0.06622,0.252965 -0.118005,-0.01633 -0.115068,-0.598398 z m -118.579167,-3.197047 c 0.0127,-0.308227 0.07539,-0.37092 0.15985,-0.159854 0.07643,0.190995 0.06703,0.419201 -0.02088,0.507119 -0.08792,0.08792 -0.150453,-0.06835 -0.138965,-0.347265 z m -56.562436,-1.433161 c 0,-0.800365 0.0496,-1.127786 0.11022,-0.727604 0.0606,0.400182 0.0606,1.055026 0,1.455208 -0.0606,0.400182 -0.11022,0.07276 -0.11022,-0.727604 z m 237.293738,0.79375 c 0,-0.363802 0.06006,-0.51263 0.133454,-0.330729 0.0734,0.181901 0.0734,0.479557 0,0.661458 -0.0734,0.181901 -0.133454,0.03307 -0.133454,-0.330729 z m 0.0098,-1.455208 c 0.0054,-0.436563 0.06469,-0.583126 0.131774,-0.325694 0.06708,0.257431 0.06267,0.614619 -0.0098,0.79375 -0.07248,0.17913 -0.127362,-0.03149 -0.12197,-0.468056 z m -237.097378,-3.197048 c 0.0127,-0.308226 0.0754,-0.370919 0.15986,-0.159853 0.0764,0.190994 0.067,0.4192 -0.0209,0.507119 -0.0879,0.08792 -0.15045,-0.06835 -0.13897,-0.347266 z m 236.802093,0 c 0.0127,-0.308226 0.07539,-0.370919 0.159851,-0.159853 0.07643,0.190994 0.06703,0.4192 -0.02088,0.507119 -0.08792,0.08792 -0.150453,-0.06835 -0.138965,-0.347266 z m -0.264583,-2.38125 c 0.0127,-0.308226 0.07539,-0.370919 0.15985,-0.159853 0.07643,0.190994 0.06703,0.4192 -0.02088,0.507119 -0.08792,0.08792 -0.150453,-0.06835 -0.138965,-0.347266 z m -1.058334,-7.408333 c 0.0127,-0.308227 0.07539,-0.37092 0.159851,-0.159854 0.07643,0.190995 0.06703,0.419201 -0.02088,0.507119 -0.08792,0.08792 -0.150452,-0.06835 -0.138964,-0.347265 z M -75.28025,-56.783733 c 0,-0.05494 0.208359,-0.2633 0.463021,-0.463021 0.419645,-0.329107 0.429003,-0.319749 0.0999,0.0999 -0.345644,0.44073 -0.562917,0.580888 -0.562917,0.363125 z m 83.5745831,-0.363125 c -0.3291073,-0.419645 -0.319749,-0.429003 0.099896,-0.0999 0.2546614,0.199721 0.4630208,0.408081 0.4630208,0.463021 0,0.217763 -0.2172732,0.0776 -0.5629169,-0.363125 z m -80.0027081,-3.241145 c 0.26339,-0.291042 0.538422,-0.529167 0.611182,-0.529167 0.07276,0 -0.08321,0.238125 -0.346599,0.529167 -0.26339,0.291041 -0.538421,0.529166 -0.611182,0.529166 -0.07276,0 0.08321,-0.238125 0.346599,-0.529166 z m 76.5631247,-0.198438 c -0.3291072,-0.419645 -0.3197489,-0.429003 0.099896,-0.0999 0.2546615,0.199721 0.4630209,0.40808 0.4630209,0.463021 0,0.217763 -0.2172732,0.0776 -0.562917,-0.363125 z m -83.5745827,-0.992187 c 0.341775,-0.363802 0.680939,-0.661459 0.7537,-0.661459 0.07276,0 -0.147341,0.297657 -0.489117,0.661459 -0.341776,0.363802 -0.68094,0.661458 -0.7537,0.661458 -0.07276,0 0.147341,-0.297656 0.489117,-0.661458 z m 90.732057,-0.06615 -0.641432,-0.727604 0.727604,0.641432 c 0.400182,0.35279 0.727604,0.680212 0.727604,0.727604 0,0.207507 -0.21426,0.03862 -0.813776,-0.641432 z m -2.5101606,-2.513542 -0.7771051,-0.859896 0.8598959,0.777105 c 0.4729428,0.427408 0.8598958,0.814361 0.8598958,0.859896 0,0.204407 -0.218316,0.02445 -0.9426866,-0.777105 z M -76.074,-64.224462 c 0.341776,-0.363802 0.68094,-0.661458 0.7537,-0.661458 0.07276,0 -0.147341,0.297656 -0.489117,0.661458 -0.341775,0.363802 -0.680939,0.661459 -0.7537,0.661459 -0.07276,0 0.147341,-0.297657 0.489117,-0.661459 z m 83.0454164,-2.182812 c -0.3291073,-0.419645 -0.3197489,-0.429004 0.099896,-0.0999 0.4407297,0.345643 0.5808874,0.562917 0.3631248,0.562917 -0.054941,0 -0.2633002,-0.20836 -0.4630209,-0.463021 z m -43.1563934,-8.984525 c 0.329117,-0.06329 0.805367,-0.06088 1.058333,0.0053 0.252965,0.06622 -0.01633,0.118005 -0.598398,0.115068 -0.582083,-0.0029 -0.789053,-0.05712 -0.459935,-0.120407 z m 5.027083,0 c 0.329118,-0.06329 0.805368,-0.06088 1.058333,0.0053 0.252966,0.06622 -0.01632,0.118005 -0.598397,0.115068 -0.582084,-0.0029 -0.789054,-0.05712 -0.459936,-0.120407 z m -7.924049,-5.549861 c 0.190995,-0.07643 0.419201,-0.06703 0.507119,0.02088 0.08792,0.08792 -0.06835,0.150453 -0.347265,0.138965 -0.308227,-0.0127 -0.37092,-0.07539 -0.159854,-0.159851 z m 4.481381,-0.278905 c 0.763984,-0.05345 2.01414,-0.05345 2.778125,0 0.763984,0.05345 0.138906,0.09718 -1.389063,0.09718 -1.527969,0 -2.153047,-0.04373 -1.389062,-0.09718 z m -78.779688,-25.569415 c 0,-0.0549 0.20836,-0.2633 0.46302,-0.46302 0.41965,-0.32911 0.429,-0.31975 0.0999,0.0999 -0.34565,0.44073 -0.56292,0.58089 -0.56292,0.36313 z m 159.774583,-0.36313 c -0.329107,-0.41964 -0.319749,-0.429 0.0999,-0.0999 0.254662,0.19972 0.463021,0.40808 0.463021,0.46302 0,0.21776 -0.217273,0.0776 -0.562917,-0.36313 z m -2.116667,-1.85208 c -0.329107,-0.41965 -0.319749,-0.429 0.0999,-0.0999 0.440729,0.34565 0.580887,0.56292 0.363124,0.56292 -0.05494,0 -0.2633,-0.20836 -0.463021,-0.46302 z m -64.309609,-28.02814 c 0.190995,-0.0764 0.419201,-0.067 0.507119,0.0209 0.08792,0.0879 -0.06835,0.15045 -0.347265,0.13897 -0.308227,-0.0127 -0.37092,-0.0754 -0.159854,-0.15986 z m -24.341666,-0.26458 c 0.190994,-0.0764 0.4192,-0.067 0.507119,0.0209 0.08792,0.0879 -0.06835,0.15045 -0.347266,0.13896 -0.308226,-0.0127 -0.370919,-0.0754 -0.159853,-0.15985 z m 21.960416,0 c 0.190995,-0.0764 0.419201,-0.067 0.507119,0.0209 0.08792,0.0879 -0.06835,0.15045 -0.347265,0.13896 -0.308227,-0.0127 -0.37092,-0.0754 -0.159854,-0.15985 z m -18.929209,-0.2672 c 0.257431,-0.0671 0.614619,-0.0627 0.79375,0.01 0.17913,0.0725 -0.03149,0.12736 -0.468056,0.12197 -0.436563,-0.005 -0.583126,-0.0647 -0.325694,-0.13178 z m 1.450173,0.008 c 0.181901,-0.0734 0.479557,-0.0734 0.661458,0 0.181901,0.0734 0.03307,0.13345 -0.330729,0.13345 -0.363802,0 -0.51263,-0.06 -0.330729,-0.13345 z m 14.022917,0 c 0.181901,-0.0734 0.479557,-0.0734 0.661458,0 0.181901,0.0734 0.03307,0.13345 -0.330729,0.13345 -0.363802,0 -0.512631,-0.06 -0.330729,-0.13345 z m -9.260417,-0.28581 c 1.055026,-0.0502 2.781432,-0.0502 3.836458,0 1.055026,0.0502 0.191823,0.0913 -1.918229,0.0913 -2.110052,0 -2.973255,-0.0411 -1.918229,-0.0913 z"
         style="fill:#fe0000;fill-opacity:1;stroke-width:0.264583" />
      <path
         id="path84"
         d="m -38.433383,99.759637 c 0.402183,-0.06082 0.997495,-0.05919 1.322917,0.0036 0.325421,0.0628 -0.0037,0.112559 -0.731242,0.110575 -0.727604,-0.0021 -0.993857,-0.05337 -0.591675,-0.114186 z m 3.849357,0.0091 c 0.190995,-0.07643 0.419201,-0.06703 0.507119,0.02088 0.08792,0.08792 -0.06835,0.150452 -0.347266,0.138964 -0.308226,-0.0127 -0.370919,-0.07539 -0.159853,-0.159851 z m 2.10013,0.0055 c 0.181901,-0.0734 0.479557,-0.0734 0.661459,0 0.181901,0.0734 0.03307,0.133454 -0.33073,0.133454 -0.363802,0 -0.51263,-0.06006 -0.330729,-0.133454 z m 3.307292,-0.01429 c 0.400182,-0.06062 1.055026,-0.06062 1.455208,0 0.400182,0.06062 0.07276,0.110223 -0.727604,0.110223 -0.800365,0 -1.127786,-0.0496 -0.727604,-0.110223 z m -14.419792,-0.250304 c 0.181901,-0.0734 0.479557,-0.0734 0.661458,0 0.181902,0.0734 0.03307,0.133453 -0.330729,0.133453 -0.363802,0 -0.51263,-0.06006 -0.330729,-0.133453 z m 20.108333,0 c 0.181902,-0.0734 0.479558,-0.0734 0.661459,0 0.181901,0.0734 0.03307,0.133453 -0.330729,0.133453 -0.363802,0 -0.512631,-0.06006 -0.33073,-0.133453 z m -29.08763,-1.063844 c 0.190995,-0.07643 0.419201,-0.06703 0.507119,0.02088 0.08792,0.08792 -0.06835,0.150453 -0.347265,0.138965 -0.308227,-0.0127 -0.37092,-0.07539 -0.159854,-0.159851 z m 38.1,0 c 0.190995,-0.07643 0.419201,-0.06703 0.507119,0.02088 0.08792,0.08792 -0.06835,0.150453 -0.347265,0.138965 -0.308227,-0.0127 -0.37092,-0.07539 -0.159854,-0.159851 z M -114.06685,68.3979 l -0.50403,-0.595312 0.59532,0.504028 c 0.55944,0.473663 0.71576,0.686597 0.50403,0.686597 -0.0502,0 -0.3181,-0.267891 -0.59532,-0.595313 z m 161.420975,0.06615 c 0.26339,-0.291042 0.538422,-0.529167 0.611182,-0.529167 0.07276,0 -0.08321,0.238125 -0.346599,0.529167 -0.26339,0.291042 -0.538421,0.529167 -0.611182,0.529167 -0.07276,0 0.08321,-0.238125 0.346599,-0.529167 z m -167.898155,-6.548438 -0.64143,-0.727604 0.72761,0.641432 c 0.68005,0.599517 0.84894,0.813777 0.64143,0.813777 -0.0474,0 -0.37482,-0.327422 -0.72761,-0.727605 z m 174.512738,-0.06614 c 0.26339,-0.291042 0.538422,-0.529167 0.611183,-0.529167 0.07276,0 -0.08321,0.238125 -0.346599,0.529167 -0.26339,0.291041 -0.538422,0.529166 -0.611183,0.529166 -0.07276,0 0.08321,-0.238125 0.346599,-0.529166 z m 1.984375,-2.216563 c 0,-0.05494 0.20836,-0.2633 0.463021,-0.463021 0.419645,-0.329107 0.429004,-0.319749 0.0999,0.0999 -0.345643,0.44073 -0.562917,0.580888 -0.562917,0.363125 z M -37.114104,43.410861 c 0.254661,-0.06655 0.67138,-0.06655 0.926042,0 0.254661,0.06655 0.0463,0.121002 -0.463021,0.121002 -0.509323,0 -0.717683,-0.05445 -0.463021,-0.121002 z m 6.879167,0 c 0.254661,-0.06655 0.67138,-0.06655 0.926041,0 0.254662,0.06655 0.0463,0.121002 -0.463021,0.121002 -0.509323,0 -0.717682,-0.05445 -0.46302,-0.121002 z M -40.284069,43.14531 c 0.257431,-0.06708 0.614619,-0.06267 0.79375,0.0098 0.179131,0.07248 -0.03149,0.127362 -0.468056,0.12197 -0.436562,-0.0054 -0.583126,-0.06469 -0.325694,-0.131773 z m 13.356423,0.0081 c 0.181901,-0.0734 0.479557,-0.0734 0.661459,0 0.181901,0.0734 0.03307,0.133454 -0.33073,0.133454 -0.363802,0 -0.51263,-0.06006 -0.330729,-0.133454 z m -16.123047,-6.355511 c 0.190995,-0.07643 0.419201,-0.06703 0.507119,0.02088 0.08792,0.08792 -0.06835,0.150452 -0.347265,0.138964 -0.308227,-0.0127 -0.37092,-0.07539 -0.159854,-0.15985 z m 19.314584,0 c 0.190994,-0.07643 0.4192,-0.06703 0.507119,0.02088 0.08792,0.08792 -0.06835,0.150452 -0.347266,0.138964 -0.308226,-0.0127 -0.370919,-0.07539 -0.159853,-0.15985 z m -49.725808,-7.955195 c -0.329107,-0.419645 -0.319749,-0.429004 0.0999,-0.0999 0.254662,0.19972 0.463021,0.40808 0.463021,0.463021 0,0.217762 -0.217273,0.07761 -0.562917,-0.363125 z M 6.476,29.205851 c 0,-0.05494 0.2083594,-0.263301 0.4630208,-0.463021 0.4196451,-0.329108 0.4290034,-0.319749 0.099896,0.0999 C 6.6932732,29.283456 6.476,29.423613 6.476,29.205851 Z m -81.525417,-1.686042 c -0.329107,-0.419645 -0.319749,-0.429003 0.0999,-0.0999 0.254662,0.199721 0.463021,0.40808 0.463021,0.463021 0,0.217763 -0.217273,0.07761 -0.562917,-0.363125 z M 3.0364167,24.443351 c 0,-0.05494 0.2083593,-0.263301 0.4630208,-0.463021 0.419645,-0.329108 0.4290034,-0.319749 0.099896,0.0999 -0.3456437,0.44073 -0.5629169,0.580887 -0.5629169,0.363125 z M -79.811917,22.757309 c -0.329107,-0.419645 -0.319749,-0.429003 0.0999,-0.0999 0.44073,0.345644 0.580888,0.562917 0.363125,0.562917 -0.05494,0 -0.2633,-0.208359 -0.463021,-0.463021 z m 157.99,-0.579697 c 0,-0.136932 0.1177,-0.321712 0.261554,-0.410617 0.149982,-0.09269 0.194337,0.01352 0.103984,0.248968 -0.175892,0.458369 -0.365538,0.542234 -0.365538,0.161649 z m -151.60625,-1.20624 c -0.642681,-0.654844 -1.10898,-1.190625 -1.036219,-1.190625 0.07276,0 0.658122,0.535781 1.300803,1.190625 0.642681,0.654843 1.10898,1.190625 1.036219,1.190625 -0.07276,0 -0.658122,-0.535782 -1.300803,-1.190625 z m 80.1576934,0.06615 c 0.648761,-0.691224 1.2143079,-1.256771 1.2567708,-1.256771 0.1986704,0 -0.011377,0.237551 -1.179568,1.333973 l -1.2567709,1.179568 z m -87.8643604,0.132291 c -0.329107,-0.419645 -0.319749,-0.429003 0.0999,-0.0999 0.440729,0.345644 0.580887,0.562917 0.363124,0.562917 -0.05494,0 -0.2633,-0.208359 -0.463021,-0.463021 z m 26.090915,-39.885937 c 1e-5,-17.171459 0.03169,-24.157186 0.07041,-15.523837 0.03871,8.633346 0.03871,22.682721 -1.8e-5,31.2208329 -0.03872,8.5381095 -0.0704,1.4744621 -0.07039,-15.6969959 z m -95.600801,18.65312467 c 0,-0.36380209 0.0601,-0.51263021 0.13345,-0.33072917 0.0734,0.18190104 0.0734,0.47955729 0,0.66145833 -0.0734,0.18190105 -0.13345,0.0330729 -0.13345,-0.33072916 z M 84.019806,0.0472406 c 0.0127,-0.30822635 0.07539,-0.37091937 0.15985,-0.15985331 0.07643,0.19099477 0.06703,0.41920054 -0.02087,0.50711894 -0.08792,0.0879184 -0.150453,-0.0683525 -0.138965,-0.34726563 z M -151.70306,-8.7942533 c 0,-0.3638021 0.0601,-0.5126302 0.13346,-0.3307292 0.0734,0.181901 0.0734,0.4795573 0,0.6614583 -0.0734,0.1819011 -0.13346,0.033073 -0.13346,-0.3307291 z m 236.802085,0 c 0,-0.3638021 0.06006,-0.5126302 0.133453,-0.3307292 0.0734,0.181901 0.0734,0.4795573 0,0.6614583 -0.0734,0.1819011 -0.133453,0.033073 -0.133453,-0.3307291 z M 22.371889,-9.2131761 c 0.0127,-0.3082263 0.07539,-0.3709193 0.159851,-0.1598533 0.07643,0.1909948 0.06703,0.4192006 -0.02088,0.507119 -0.08792,0.087918 -0.150453,-0.068352 -0.138965,-0.3472657 z M -95.337003,-12.366128 c 0.0054,-0.436563 0.06469,-0.583126 0.131773,-0.325694 0.06708,0.257431 0.06267,0.614619 -0.0098,0.79375 -0.07248,0.17913 -0.127362,-0.03149 -0.12197,-0.468056 z m 124.079778,0.132291 c 0,-0.363802 0.06005,-0.51263 0.133453,-0.330729 0.0734,0.181901 0.0734,0.479557 0,0.661458 -0.0734,0.181902 -0.133453,0.03307 -0.133453,-0.330729 z m 56.658343,-1.852083 c 0,-0.800365 0.0496,-1.127786 0.110223,-0.727604 0.06062,0.400182 0.06062,1.055026 0,1.455208 -0.06062,0.400182 -0.110223,0.07276 -0.110223,-0.727604 z m -237.334858,-0.132292 c 0.002,-0.727604 0.0534,-0.993857 0.11418,-0.591674 0.0608,0.402182 0.0592,0.997495 -0.004,1.322917 -0.0628,0.325421 -0.11256,-0.0036 -0.11057,-0.731243 z m 56.341957,-1.190625 c 0,-0.509323 0.05445,-0.717682 0.121002,-0.463021 0.06655,0.254662 0.06655,0.671381 0,0.926042 -0.06655,0.254662 -0.121002,0.0463 -0.121002,-0.463021 z m 124.61875,0 c 0,-0.509323 0.05445,-0.717682 0.121002,-0.463021 0.06655,0.254662 0.06655,0.671381 0,0.926042 -0.06655,0.254662 -0.121002,0.0463 -0.121002,-0.463021 z m -180.943937,-3.96875 c 0,-1.236927 0.0456,-1.742942 0.10128,-1.124479 0.0557,0.618464 0.0557,1.630495 0,2.248959 -0.0557,0.618463 -0.10128,0.112447 -0.10128,-1.12448 z m 237.33272,-0.132291 c -7.94e-4,-1.309688 0.04393,-1.878828 0.09942,-1.264754 0.05549,0.614072 0.05615,1.685634 0.0016,2.38125 -0.0548,0.695614 -0.100206,0.193191 -0.10101,-1.116496 z m -181.007533,-2.778125 c 0,-0.509323 0.05445,-0.717683 0.121002,-0.463021 0.06655,0.254661 0.06655,0.67138 0,0.926041 -0.06655,0.254662 -0.121002,0.0463 -0.121002,-0.46302 z m 124.61875,0 c 0,-0.509323 0.05445,-0.717683 0.121002,-0.463021 0.06655,0.254661 0.06655,0.67138 0,0.926041 -0.06655,0.254662 -0.121002,0.0463 -0.121002,-0.46302 z m -180.960707,-1.190625 c 0.002,-0.727604 0.0534,-0.993857 0.11418,-0.591675 0.0608,0.402183 0.0592,0.997495 -0.004,1.322917 -0.0628,0.325421 -0.11256,-0.0036 -0.11057,-0.731242 z m 237.331247,0 c 0.0021,-0.727604 0.05337,-0.993857 0.114186,-0.591675 0.06082,0.402183 0.05919,0.997495 -0.0036,1.322917 -0.0628,0.325421 -0.112559,-0.0037 -0.110575,-0.731242 z m -180.73451,-2.116667 c 0.0054,-0.436562 0.06469,-0.583126 0.131773,-0.325694 0.06708,0.257431 0.06267,0.614619 -0.0098,0.79375 -0.07248,0.179131 -0.127362,-0.03149 -0.12197,-0.468056 z m 124.079778,0.132292 c 0,-0.363802 0.06005,-0.512631 0.133453,-0.33073 0.0734,0.181902 0.0734,0.479558 0,0.661459 -0.0734,0.181901 -0.133453,0.03307 -0.133453,-0.330729 z m -117.760469,-3.064756 c 0.0127,-0.308227 0.07539,-0.37092 0.15985,-0.159854 0.07643,0.190995 0.06703,0.419201 -0.02088,0.507119 -0.08792,0.08792 -0.150453,-0.06835 -0.138965,-0.347265 z m 111.389583,0 c 0.0127,-0.308227 0.07539,-0.37092 0.159851,-0.159854 0.07643,0.190995 0.06703,0.419201 -0.02088,0.507119 -0.08792,0.08792 -0.150453,-0.06835 -0.138965,-0.347265 z m -174.074949,-0.374828 c 0,-0.363802 0.0601,-0.51263 0.13346,-0.330729 0.0734,0.181901 0.0734,0.479557 0,0.661458 -0.0734,0.181902 -0.13346,0.03307 -0.13346,-0.330729 z m 236.802085,0 c 0,-0.363802 0.06006,-0.51263 0.133453,-0.330729 0.0734,0.181901 0.0734,0.479557 0,0.661458 -0.0734,0.181902 -0.133453,0.03307 -0.133453,-0.330729 z m -235.764635,-8.885589 c 0.0127,-0.308226 0.0754,-0.370919 0.15985,-0.159853 0.0764,0.190994 0.067,0.4192 -0.0209,0.507119 -0.0879,0.08792 -0.15045,-0.06835 -0.13896,-0.347266 z M 84.040692,-37.89842 c 0,-0.363802 0.06005,-0.51263 0.133453,-0.330729 0.0734,0.181901 0.0734,0.479557 0,0.661458 -0.0734,0.181901 -0.133453,0.03307 -0.133453,-0.330729 z M -82.688583,-57.048316 c 0,-0.05494 0.208359,-0.2633 0.463021,-0.463021 0.419645,-0.329107 0.429003,-0.319749 0.0999,0.0999 -0.345644,0.44073 -0.562917,0.580888 -0.562917,0.363125 z m 9.249359,-1.55375 c 1.096423,-1.168186 1.333974,-1.378238 1.333974,-1.179568 0,0.04246 -0.565547,0.60801 -1.256771,1.256771 l -1.256771,1.179568 z m 80.03757,-0.264583 -1.312971,-1.389063 1.3890625,1.312971 c 1.2907407,1.220036 1.5104004,1.465154 1.312971,1.465154 -0.041852,0 -0.6669299,-0.625078 -1.3890625,-1.389062 z m 7.781404,-0.132292 c -0.329108,-0.419645 -0.319749,-0.429003 0.0999,-0.0999 0.44073,0.345644 0.580887,0.562917 0.363125,0.562917 -0.05494,0 -0.263301,-0.208359 -0.463021,-0.463021 z m -94.4225,-1.224375 c 0,-0.05494 0.208359,-0.2633 0.463021,-0.463021 0.419645,-0.329107 0.429003,-0.319749 0.0999,0.0999 -0.345644,0.44073 -0.562917,0.580888 -0.562917,0.363125 z m 83.3099997,-1.686041 c -0.3291072,-0.419646 -0.3197489,-0.429004 0.099896,-0.0999 0.4407297,0.345644 0.5808875,0.562917 0.3631248,0.562917 -0.054941,0 -0.2633001,-0.208359 -0.4630209,-0.46302 z m -1.4655561,-0.980549 c 0,-0.211881 0.1011608,-0.322715 0.2248032,-0.246301 0.1236398,0.07641 0.1563026,0.24977 0.072578,0.385236 -0.2139473,0.346176 -0.297381,0.307197 -0.2973812,-0.138935 z m -77.0819436,-2.09591 c 0,-0.05494 0.208359,-0.2633 0.463021,-0.463021 0.419645,-0.329107 0.429003,-0.319749 0.0999,0.0999 -0.345644,0.44073 -0.562917,0.580888 -0.562917,0.363125 z m 83.5745831,-0.363125 c -0.3291073,-0.419645 -0.319749,-0.429003 0.099896,-0.0999 0.2546614,0.199721 0.4630208,0.40808 0.4630208,0.463021 0,0.217763 -0.2172732,0.07761 -0.5629169,-0.363125 z M -40.284069,-80.944274 c 0.257431,-0.06708 0.614619,-0.06267 0.79375,0.0098 0.179131,0.07248 -0.03149,0.127363 -0.468056,0.121971 -0.436562,-0.0054 -0.583126,-0.06469 -0.325694,-0.131773 z m 13.229167,0 c 0.257431,-0.06708 0.614619,-0.06267 0.79375,0.0098 0.17913,0.07248 -0.03149,0.127363 -0.468056,0.121971 -0.436563,-0.0054 -0.583126,-0.06469 -0.325694,-0.131773 z m -10.059202,-0.263615 c 0.254661,-0.06655 0.67138,-0.06655 0.926042,0 0.254661,0.06655 0.0463,0.121002 -0.463021,0.121002 -0.509323,0 -0.717683,-0.05445 -0.463021,-0.121002 z m 6.879167,0 c 0.254661,-0.06655 0.67138,-0.06655 0.926041,0 0.254662,0.06655 0.0463,0.121002 -0.463021,0.121002 -0.509323,0 -0.717682,-0.05445 -0.46302,-0.121002 z m 88.006353,-14.038969 c -0.329107,-0.419645 -0.319749,-0.429003 0.0999,-0.0999 0.440729,0.345644 0.580887,0.562917 0.363124,0.562917 -0.05494,0 -0.2633,-0.208359 -0.463021,-0.463021 z m -180.941246,-1.488958 c 0,-0.05494 0.20836,-0.2633 0.46302,-0.463021 0.41964,-0.329107 0.429,-0.319749 0.0999,0.0999 -0.34564,0.44073 -0.56291,0.580888 -0.56291,0.363125 z m 179.353746,-0.363125 c -0.329107,-0.419645 -0.319749,-0.429003 0.0999,-0.0999 0.440729,0.345644 0.580887,0.562917 0.363124,0.562917 -0.05494,0 -0.2633,-0.208359 -0.463021,-0.463021 z m -176.727946,-2.544911 c 0.71621,-0.777398 0.85752,-0.853508 0.66808,-0.359818 -0.071,0.185035 -0.39469,0.498341 -0.7193,0.696242 -0.56289,0.343161 -0.56052,0.327593 0.0512,-0.336424 z m 174.36042,-0.100922 -0.641432,-0.727606 0.727605,0.641434 c 0.400182,0.35279 0.727604,0.680212 0.727604,0.727604 0,0.207507 -0.21426,0.03862 -0.813777,-0.641432 z m -6.487403,-6.482296 -0.504029,-0.59531 0.595313,0.50403 c 0.327422,0.27721 0.595312,0.54511 0.595312,0.59531 0,0.21174 -0.212934,0.0554 -0.686596,-0.50403 z m -10.459654,-8.59895 c -0.329107,-0.41965 -0.319749,-0.42901 0.0999,-0.0999 0.254662,0.19972 0.463021,0.40808 0.463021,0.46302 0,0.21776 -0.217273,0.0776 -0.562917,-0.36312 z m -89.180442,-21.41356 c 0.190994,-0.0764 0.4192,-0.067 0.507119,0.0209 0.08792,0.0879 -0.06835,0.15045 -0.347266,0.13897 -0.308226,-0.0127 -0.370919,-0.0754 -0.159853,-0.15986 z m 37.554297,0.006 c 0.181901,-0.0734 0.479557,-0.0734 0.661458,0 0.181901,0.0734 0.03307,0.13346 -0.330729,0.13346 -0.363802,0 -0.512631,-0.0601 -0.330729,-0.13346 z m -28.839584,-1.05833 c 0.181901,-0.0734 0.479557,-0.0734 0.661458,0 0.181902,0.0734 0.03307,0.13345 -0.330729,0.13345 -0.363802,0 -0.51263,-0.06 -0.330729,-0.13345 z m 20.108333,0 c 0.181902,-0.0734 0.479558,-0.0734 0.661459,0 0.181901,0.0734 0.03307,0.13345 -0.330729,0.13345 -0.363802,0 -0.512631,-0.06 -0.33073,-0.13345 z m -14.948958,-0.27886 c 0.400182,-0.0606 1.055026,-0.0606 1.455208,0 0.400183,0.0606 0.07276,0.11022 -0.727604,0.11022 -0.800364,0 -1.127786,-0.0496 -0.727604,-0.11022 z m 2.650869,0.006 c 0.257431,-0.0671 0.614619,-0.0627 0.79375,0.01 0.17913,0.0725 -0.03149,0.12736 -0.468056,0.12197 -0.436563,-0.005 -0.583126,-0.0647 -0.325694,-0.13178 z m 2.640798,-0.006 c 0.400182,-0.0606 1.055026,-0.0606 1.455208,0 0.400182,0.0606 0.07276,0.11022 -0.727604,0.11022 -0.800365,0 -1.127786,-0.0496 -0.727604,-0.11022 z m 3.96875,0 c 0.400182,-0.0606 1.055026,-0.0606 1.455208,0 0.400182,0.0606 0.07276,0.11022 -0.727604,0.11022 -0.800365,0 -1.127786,-0.0496 -0.727604,-0.11022 z m 2.530078,0.009 c 0.190995,-0.0764 0.419201,-0.067 0.507119,0.0209 0.08792,0.0879 -0.06835,0.15046 -0.347266,0.13897 -0.308226,-0.0127 -0.370919,-0.0754 -0.159853,-0.15985 z"
         style="fill:#fe0000;fill-opacity:1;stroke-width:0.264583" />
      <path
         id="path82"
         d="m -40.752125,99.633928 c -3.762304,-0.178707 -9.13411,-0.720246 -10.980208,-1.106929 -0.363802,-0.0762 -1.792552,-0.329557 -3.175,-0.563012 -6.33503,-1.069801 -17.076965,-4.150278 -22.357292,-6.411426 -4.558519,-1.952056 -6.091124,-2.650588 -8.995833,-4.100132 -1.74625,-0.871437 -3.847254,-1.958202 -4.668893,-2.415034 -0.821643,-0.456835 -2.008614,-1.11424 -2.637716,-1.4609 -0.629103,-0.346662 -1.445131,-0.840555 -1.813399,-1.097542 -0.368266,-0.256984 -1.741138,-1.156713 -3.050826,-1.999395 -12.925608,-8.316629 -25.448848,-20.841623 -34.103388,-34.108186 -0.85439,-1.309688 -1.75998,-2.68256 -2.01243,-3.050826 -0.25246,-0.368268 -0.71512,-1.142175 -1.02815,-1.719792 -0.31302,-0.57762 -0.97356,-1.764591 -1.46785,-2.637716 -0.87586,-1.547132 -3.49256,-6.739368 -4.60023,-9.128125 -3.54658,-7.648339 -7.16998,-19.445245 -8.49235,-27.648958 -0.28149,-1.74625 -0.57658,-3.3535937 -0.65577,-3.571875 -0.0792,-0.2182813 -0.33443,-2.4209375 -0.56719,-4.8947917 -0.56247,-5.9781943 -0.55965,-19.3057273 0.005,-25.1063253 1.02169,-10.489785 4.15672,-22.890261 8.33525,-32.969716 1.37405,-3.314499 4.34048,-9.497902 5.58498,-11.641667 2.66046,-4.582903 4.00261,-6.784152 5.41231,-8.876734 1.86616,-2.770137 2.83968,-4.165076 3.03754,-4.352433 0.0768,-0.07276 0.84883,-1.083156 1.71554,-2.245323 5.25916,-7.052027 14.41614,-16.20183 21.49987,-21.48301 1.12468,-0.8385 2.10441,-1.60173 2.17717,-1.69608 0.215,-0.27878 7.096956,-4.82092 9.38909,-6.19686 12.191883,-7.31865 26.376061,-12.60245 40.144602,-14.95442 1.704623,-0.29118 3.252435,-0.58335 3.439583,-0.64926 1.302337,-0.45864 10.287217,-0.96353 17.273603,-0.97066 7.177794,-0.007 16.224316,0.50503 17.594792,0.99648 0.218281,0.0783 1.825625,0.37537 3.571875,0.6602 3.5685889,0.58207 7.8926029,1.56107 11.24479167,2.54592 3.60200043,1.05825 10.04980103,3.23331 11.77395833,3.97176 4.878612,2.08948 6.640034,2.89207 9.392708,4.27975 4.924412,2.48251 7.147066,3.76251 11.773959,6.78051 11.365108,7.41317 22.067885,17.54238 30.32135,28.69641 2.031183,2.745012 2.799043,3.874667 5.665139,8.334375 1.915531,2.980611 5.630575,9.960073 6.999177,13.149374 0.331062,0.77149 1.015693,2.355209 1.521399,3.519376 2.881823,6.634131 5.913758,17.004877 7.210298,24.662855 0.300921,1.777383 0.601057,3.384727 0.666964,3.571875 0.06591,0.187148 0.308047,2.364332 0.538086,4.838187 0.800939,8.613357 0.434118,25.5309023 -0.662617,30.55937467 -0.142825,0.65484375 -0.447474,2.32171873 -0.677,3.70416663 -0.51208,3.0843141 -1.542156,7.5821437 -2.42375,10.5833337 -0.984234,3.350596 -2.214729,7.171235 -2.599002,8.069791 -0.186698,0.436563 -0.521502,1.329532 -0.744006,1.984375 -1.320768,3.887073 -4.743953,11.12103 -7.887827,16.66875 -1.538245,2.714406 -1.696151,2.97098 -3.90802,6.35 -9.59703,14.661158 -23.634904,28.099078 -38.253525,36.618641 -1.455208,0.848076 -3.181614,1.857621 -3.836458,2.243428 -1.234511,0.727324 -6.191472,3.192727 -8.73125,4.342591 -5.7633209,2.609294 -13.8848306,5.366345 -20.5052083,6.96101 -10.6507837,2.565474 -22.6802157,3.571347 -35.4541667,2.964595 z m 17.816854,-56.949843 c 12.9793178,-2.220555 24.2190189,-7.967829 33.405395,-17.08141 5.495361,-5.451816 8.750027,-9.867611 11.891234,-16.1335425 3.235873,-6.4547644 4.760791,-11.0768395 5.99824,-18.1808808 0.664919,-3.8172047 0.726196,-4.7280167 0.699777,-10.4012547 -0.02669,-5.732103 -0.09122,-6.548335 -0.826246,-10.451042 -1.202039,-6.382385 -1.824344,-8.474295 -4.171566,-14.022917 -5.003959,-11.828909 -14.0882529,-22.155943 -25.3907713,-28.864247 -7.0631897,-4.192167 -13.4021887,-6.513865 -21.6958337,-7.94624 -4.382455,-0.756885 -11.690334,-1.074568 -15.478125,-0.672859 -3.312149,0.351266 -8.714031,1.275006 -10.415942,1.781162 -5.382937,1.600904 -7.679661,2.45505 -11.544474,4.293365 -11.725688,5.577374 -21.987733,15.577058 -28.160012,27.440069 -1.904167,3.659775 -3.378282,7.471495 -5.027401,12.999683 -0.507235,1.700364 -1.430996,7.10061 -1.781738,10.415942 -0.625653,5.913853 0.299426,15.8499549 2.040614,21.9178958 2.615946,9.1164225 6.597836,16.5922322 12.706054,23.8550212 9.069554,10.783869 22.601526,18.556827 36.439607,20.931426 5.134092,0.881004 6.616841,0.99137 12.093292,0.900133 4.065262,-0.06773 6.020036,-0.233201 9.217896,-0.780304 z m -14.554221,-5.230833 c -1.698051,-0.10985 -4.599215,-0.500547 -6.447026,-0.868217 -3.142488,-0.625277 -8.391511,-2.088462 -8.98644,-2.505004 -0.145521,-0.101886 -0.859896,-0.400455 -1.5875,-0.663487 -1.588479,-0.574242 -6.660285,-3.058557 -7.714666,-3.778864 -0.413599,-0.282554 -1.287586,-0.859782 -1.942189,-1.282729 -8.320998,-5.376297 -16.34099,-14.62373 -20.171389,-23.2585793 -1.768962,-3.9877656 -1.987624,-4.54870612 -2.793709,-7.1668508 -3.84333,-12.4830149 -3.281114,-26.0468769 1.572784,-37.9446079 0.966933,-2.370124 3.155378,-6.81228 3.869449,-7.854304 0.280659,-0.409559 0.974071,-1.459029 1.540915,-2.332154 2.716323,-4.184039 8.327466,-10.234623 12.145055,-13.096206 0.873125,-0.654476 1.647031,-1.257633 1.719791,-1.34035 0.07276,-0.08272 0.846667,-0.605073 1.719792,-1.160788 0.873125,-0.555717 1.925902,-1.244163 2.339501,-1.529881 1.038797,-0.717603 6.027233,-3.175611 8.111541,-3.996891 4.780396,-1.883619 11.479942,-3.4729 15.757604,-3.738052 1.447017,-0.08969 3.198683,-0.218583 3.892595,-0.286422 2.066084,-0.201983 8.557339,0.381412 12.072096,1.084966 4.957993,0.992449 8.577607,2.19488 13.9183297,4.623647 3.4824405,1.583684 10.6331332,6.363586 10.3076745,6.890192 -0.081785,0.132328 0.017383,0.176866 0.220382,0.09897 0.5130959,-0.196895 6.3300267,5.430041 8.7244948,8.439533 1.060652,1.33308 2.392154,3.138157 2.958897,4.011282 0.56674,0.873125 1.257358,1.922595 1.534707,2.332154 0.717447,1.059447 2.909039,5.514925 3.86343,7.854304 5.422781,13.292159 5.461376,28.861179 0.104286,42.0687503 -1.043379,2.5723877 -3.219074,7.0176337 -3.973735,8.1188877 -0.280659,0.409559 -0.974505,1.459029 -1.54188,2.332154 -3.567444,5.489895 -10.1272238,12.0509 -15.583673,15.586588 -0.873125,0.565772 -1.9225948,1.258306 -2.3321539,1.538965 -1.1012541,0.754661 -5.5465001,2.930356 -8.1188881,3.973735 -5.249833,2.129372 -11.300648,3.483345 -17.330208,3.877934 -2.182812,0.142849 -4.147344,0.239771 -4.365625,0.215387 -0.218281,-0.02439 -1.786192,-0.134215 -3.484242,-0.244062 z M -52.157865,10.87547 c 1.325448,-0.82332 3.481469,-2.1502956 4.791157,-2.9488345 1.309687,-0.7985364 2.797968,-1.7170797 3.307291,-2.0412023 1.641012,-1.0443077 9.884839,-6.12358541 12.321191,-7.5914673 1.299752,-0.7830873 5.220684,-3.1900945 8.713184,-5.348904 6.237502,-3.8555689 7.239847,-4.4725039 14.419792,-8.8752279 1.9645312,-1.204646 3.8695313,-2.395146 4.2333333,-2.645559 0.3638021,-0.250412 1.0484115,-0.655391 1.5213542,-0.899956 0.4729427,-0.244565 0.8598958,-0.544973 0.8598958,-0.667578 0,-0.252534 -1.4449874,-1.116491 -8.2893933,-4.956223 -2.644113,-1.483357 -7.108894,-3.987681 -9.921732,-5.565164 -2.812838,-1.577482 -5.634797,-3.165805 -6.271019,-3.529607 -2.638999,-1.509025 -9.583656,-5.413915 -10.442856,-5.871885 -0.509323,-0.271478 -1.34276,-0.744154 -1.852083,-1.050393 -0.844553,-0.507796 -3.328731,-1.914893 -12.634799,-7.156641 -1.783149,-1.004379 -3.360727,-1.752822 -3.505729,-1.663208 -0.399224,0.246738 -0.360944,62.308793 0.03843,62.308793 0.16614,0 1.386531,-0.673626 2.71198,-1.496943 z"
         style="fill:#fe0000;fill-opacity:1;stroke-width:0.264583" />
    </g>
  </g>
</svg>
